<svg xmlns="http://www.w3.org/2000/svg" width="1440" height="1740" viewBox="0 0 1440 1740" role="img" aria-labelledby="title desc">
<title id="title">SynlysAI Engineering Command Center</title>
<desc id="desc">Command-center style analytics for SynlysAI repositories.</desc>
<defs>
  <linearGradient id="bg" x1="0" x2="1" y1="0" y2="1">
    <stop offset="0%" stop-color="#02060b" />
    <stop offset="40%" stop-color="#07131b" />
    <stop offset="100%" stop-color="#030910" />
  </linearGradient>
  <linearGradient id="signal" x1="0" x2="1">
    <stop offset="0%" stop-color="#1d4ed8" />
    <stop offset="55%" stop-color="#22d3ee" />
    <stop offset="100%" stop-color="#86efac" />
  </linearGradient>
  <radialGradient id="haloA" cx="12%" cy="0%" r="80%">
    <stop offset="0%" stop-color="#0ea5e9" stop-opacity="0.22" />
    <stop offset="100%" stop-color="#0ea5e9" stop-opacity="0" />
  </radialGradient>
  <radialGradient id="haloB" cx="92%" cy="8%" r="55%">
    <stop offset="0%" stop-color="#22c55e" stop-opacity="0.18" />
    <stop offset="100%" stop-color="#22c55e" stop-opacity="0" />
  </radialGradient>
  <filter id="softGlow" x="-20%" y="-20%" width="140%" height="140%">
    <feGaussianBlur stdDeviation="8" result="blur" />
    <feMerge><feMergeNode in="blur" /><feMergeNode in="SourceGraphic" /></feMerge>
  </filter>
  <style>
    .bg { fill: url(#bg); }
    .panel { fill: rgba(5, 12, 18, 0.78); stroke: rgba(120, 146, 167, 0.26); stroke-width: 1; }
    .panel-bright { fill: rgba(5, 12, 18, 0.58); stroke: rgba(34, 211, 238, 0.32); stroke-width: 1; }
    .panel-soft { fill: rgba(9, 18, 27, 0.84); stroke: rgba(74, 222, 128, 0.18); stroke-width: 1; }
    .hero-kicker { fill: #7dd3fc; font: 700 13px 'Trebuchet MS', 'Segoe UI', sans-serif; letter-spacing: 0.38em; text-transform: uppercase; }
    .hero-title { fill: #f8fafc; font: 700 54px 'Trebuchet MS', 'Segoe UI', sans-serif; }
    .hero-subtitle { fill: #c5d3df; font: 400 18px 'Segoe UI', sans-serif; }
    .command-label { fill: #77e4ff; font: 700 11px 'Trebuchet MS', 'Segoe UI', sans-serif; letter-spacing: 0.22em; text-transform: uppercase; }
    .command-value { fill: #f8fafc; font: 700 22px 'Trebuchet MS', 'Segoe UI', sans-serif; }
    .command-note { fill: #8da3b4; font: 400 12px 'Segoe UI', sans-serif; }
    .metric-label { fill: #8ca1b3; font: 600 12px 'Trebuchet MS', 'Segoe UI', sans-serif; letter-spacing: 0.14em; text-transform: uppercase; }
    .metric-value { fill: #f8fafc; font: 700 31px 'Trebuchet MS', 'Segoe UI', sans-serif; }
    .panel-title { fill: #f8fafc; font: 700 22px 'Trebuchet MS', 'Segoe UI', sans-serif; }
    .panel-subtitle { fill: #8ca1b3; font: 400 13px 'Segoe UI', sans-serif; }
    .rank { fill: #7dd3fc; font: 700 12px 'Trebuchet MS', 'Segoe UI', sans-serif; letter-spacing: 0.14em; }
    .table-name { fill: #f8fafc; font: 600 16px 'Segoe UI', sans-serif; }
    .table-meta { fill: #9fb1c0; font: 400 13px 'Segoe UI', sans-serif; }
    .table-value { fill: #f8fafc; font: 700 16px 'Trebuchet MS', 'Segoe UI', sans-serif; }
    .tiny { fill: #7f93a4; font: 400 11px 'Segoe UI', sans-serif; }
    .badge { fill: rgba(8, 18, 28, 0.92); stroke: rgba(93, 214, 255, 0.26); stroke-width: 1; }
    .badge-title { fill: #f8fafc; font: 700 16px 'Trebuchet MS', 'Segoe UI', sans-serif; }
    .badge-meta { fill: #8da3b4; font: 400 12px 'Segoe UI', sans-serif; }
    .badge-chip { fill: rgba(20, 33, 44, 0.92); stroke: rgba(132, 204, 22, 0.24); stroke-width: 1; }
    .badge-chip-text { fill: #b8f29e; font: 600 11px Consolas, 'SFMono-Regular', monospace; }
    .repo-card-mono { fill: #9ae6b4; font: 600 12px Consolas, 'SFMono-Regular', monospace; }
    .stream-label { fill: #f8fafc; font: 600 15px 'Segoe UI', sans-serif; }
    .stream-state { fill: #8be9fd; font: 700 11px 'Trebuchet MS', 'Segoe UI', sans-serif; letter-spacing: 0.18em; text-transform: uppercase; }
    .stream-copy { fill: #a9bac8; font: 400 12px 'Segoe UI', sans-serif; }
    .footer { fill: #7f93a4; font: 400 12px 'Segoe UI', sans-serif; }
  </style>
</defs>
<rect class="bg" width="1440" height="1740" rx="32" />
<rect x="0" y="0" width="1440" height="1740" fill="url(#haloA)" />
<rect x="0" y="0" width="1440" height="1740" fill="url(#haloB)" />

<line x1="52" y1="32" x2="52" y2="1708" stroke="rgba(74, 85, 104, 0.08)" stroke-width="1" />
<line x1="148" y1="32" x2="148" y2="1708" stroke="rgba(74, 85, 104, 0.08)" stroke-width="1" />
<line x1="244" y1="32" x2="244" y2="1708" stroke="rgba(74, 85, 104, 0.08)" stroke-width="1" />
<line x1="340" y1="32" x2="340" y2="1708" stroke="rgba(74, 85, 104, 0.08)" stroke-width="1" />
<line x1="436" y1="32" x2="436" y2="1708" stroke="rgba(74, 85, 104, 0.08)" stroke-width="1" />
<line x1="532" y1="32" x2="532" y2="1708" stroke="rgba(74, 85, 104, 0.08)" stroke-width="1" />
<line x1="628" y1="32" x2="628" y2="1708" stroke="rgba(74, 85, 104, 0.08)" stroke-width="1" />
<line x1="724" y1="32" x2="724" y2="1708" stroke="rgba(74, 85, 104, 0.08)" stroke-width="1" />
<line x1="820" y1="32" x2="820" y2="1708" stroke="rgba(74, 85, 104, 0.08)" stroke-width="1" />
<line x1="916" y1="32" x2="916" y2="1708" stroke="rgba(74, 85, 104, 0.08)" stroke-width="1" />
<line x1="1012" y1="32" x2="1012" y2="1708" stroke="rgba(74, 85, 104, 0.08)" stroke-width="1" />
<line x1="1108" y1="32" x2="1108" y2="1708" stroke="rgba(74, 85, 104, 0.08)" stroke-width="1" />
<line x1="1204" y1="32" x2="1204" y2="1708" stroke="rgba(74, 85, 104, 0.08)" stroke-width="1" />
<line x1="1300" y1="32" x2="1300" y2="1708" stroke="rgba(74, 85, 104, 0.08)" stroke-width="1" />
<line x1="1396" y1="32" x2="1396" y2="1708" stroke="rgba(74, 85, 104, 0.08)" stroke-width="1" />
<line x1="32" y1="48" x2="1408" y2="48" stroke="rgba(74, 85, 104, 0.06)" stroke-width="1" />
<line x1="32" y1="144" x2="1408" y2="144" stroke="rgba(74, 85, 104, 0.06)" stroke-width="1" />
<line x1="32" y1="240" x2="1408" y2="240" stroke="rgba(74, 85, 104, 0.06)" stroke-width="1" />
<line x1="32" y1="336" x2="1408" y2="336" stroke="rgba(74, 85, 104, 0.06)" stroke-width="1" />
<line x1="32" y1="432" x2="1408" y2="432" stroke="rgba(74, 85, 104, 0.06)" stroke-width="1" />
<line x1="32" y1="528" x2="1408" y2="528" stroke="rgba(74, 85, 104, 0.06)" stroke-width="1" />
<line x1="32" y1="624" x2="1408" y2="624" stroke="rgba(74, 85, 104, 0.06)" stroke-width="1" />
<line x1="32" y1="720" x2="1408" y2="720" stroke="rgba(74, 85, 104, 0.06)" stroke-width="1" />
<line x1="32" y1="816" x2="1408" y2="816" stroke="rgba(74, 85, 104, 0.06)" stroke-width="1" />
<line x1="32" y1="912" x2="1408" y2="912" stroke="rgba(74, 85, 104, 0.06)" stroke-width="1" />
<line x1="32" y1="1008" x2="1408" y2="1008" stroke="rgba(74, 85, 104, 0.06)" stroke-width="1" />
<line x1="32" y1="1104" x2="1408" y2="1104" stroke="rgba(74, 85, 104, 0.06)" stroke-width="1" />
<line x1="32" y1="1200" x2="1408" y2="1200" stroke="rgba(74, 85, 104, 0.06)" stroke-width="1" />
<line x1="32" y1="1296" x2="1408" y2="1296" stroke="rgba(74, 85, 104, 0.06)" stroke-width="1" />
<line x1="32" y1="1392" x2="1408" y2="1392" stroke="rgba(74, 85, 104, 0.06)" stroke-width="1" />
<line x1="32" y1="1488" x2="1408" y2="1488" stroke="rgba(74, 85, 104, 0.06)" stroke-width="1" />
<line x1="32" y1="1584" x2="1408" y2="1584" stroke="rgba(74, 85, 104, 0.06)" stroke-width="1" />
<line x1="32" y1="1680" x2="1408" y2="1680" stroke="rgba(74, 85, 104, 0.06)" stroke-width="1" />
<rect x="44" y="44" width="1352" height="222" rx="28" class="panel-bright" />
<text x="74" y="86" text-anchor="start" class="hero-kicker">ENGINEERING COMMAND CENTER</text>
<text x="74" y="146" text-anchor="start" class="hero-title">SynlysAI</text>
<text x="74" y="181" text-anchor="start" class="hero-subtitle">Bridging Synthesis, Analysis and AI.</text>
<rect x="780" y="70" width="258" height="62" rx="18" class="panel-soft" />
<text x="796" y="90" text-anchor="start" class="command-label">mission</text>
<text x="796" y="112" text-anchor="start" class="command-value">20 repos online</text>
<text x="796" y="127" text-anchor="start" class="command-note">1 public · 19 private</text>
<rect x="1066" y="70" width="258" height="62" rx="18" class="panel-soft" />
<text x="1082" y="90" text-anchor="start" class="command-label">signal</text>
<text x="1082" y="112" text-anchor="start" class="command-value">185 / 30d</text>
<text x="1082" y="127" text-anchor="start" class="command-note">496 commits in rolling 12 weeks</text>
<rect x="780" y="148" width="258" height="62" rx="18" class="panel-soft" />
<text x="796" y="168" text-anchor="start" class="command-label">surface</text>
<text x="796" y="190" text-anchor="start" class="command-value">21.9 MB</text>
<text x="796" y="205" text-anchor="start" class="command-note">Python is the dominant language</text>
<rect x="1066" y="148" width="258" height="62" rx="18" class="panel-soft" />
<text x="1082" y="168" text-anchor="start" class="command-label">community</text>
<text x="1082" y="190" text-anchor="start" class="command-value">0 stars</text>
<text x="1082" y="205" text-anchor="start" class="command-note">0 forks · 0 watchers</text>
<rect x="52" y="284" width="206" height="70" rx="18" class="panel" />
<text x="68" y="308" text-anchor="start" class="metric-label">COMMIT MASS</text>
<text x="68" y="338" text-anchor="start" class="metric-value">961</text>
<rect x="275" y="284" width="206" height="70" rx="18" class="panel" />
<text x="291" y="308" text-anchor="start" class="metric-label">ACTIVE REPOS</text>
<text x="291" y="338" text-anchor="start" class="metric-value">9</text>
<rect x="498" y="284" width="206" height="70" rx="18" class="panel" />
<text x="514" y="308" text-anchor="start" class="metric-label">OPEN ISSUES</text>
<text x="514" y="338" text-anchor="start" class="metric-value">0</text>
<rect x="721" y="284" width="206" height="70" rx="18" class="panel" />
<text x="737" y="308" text-anchor="start" class="metric-label">OPEN PRS</text>
<text x="737" y="338" text-anchor="start" class="metric-value">0</text>
<rect x="944" y="284" width="206" height="70" rx="18" class="panel" />
<text x="960" y="308" text-anchor="start" class="metric-label">RELEASES</text>
<text x="960" y="338" text-anchor="start" class="metric-value">1</text>
<rect x="1167" y="284" width="206" height="70" rx="18" class="panel" />
<text x="1183" y="308" text-anchor="start" class="metric-label">ROADMAP</text>
<text x="1183" y="338" text-anchor="start" class="metric-value">0</text>
<rect x="52" y="376" width="430" height="448" rx="28" class="panel" />
<text x="80" y="416" text-anchor="start" class="panel-title">Contributor Radar</text>
<text x="80" y="440" text-anchor="start" class="panel-subtitle">Cross-repository contributor aggregation.</text>
<text x="80" y="468" text-anchor="start" class="rank">#01</text>
<text x="130" y="468" text-anchor="start" class="table-name">xx5921</text>
<text x="130" y="488" text-anchor="start" class="table-meta">10 repos wired in</text>
<rect x="254" y="457" width="160.0" height="8" rx="4" fill="url(#signal)" filter="url(#softGlow)" />
<text x="454" y="468" text-anchor="end" class="table-value">446</text>
<text x="454" y="488" text-anchor="end" class="table-meta">commits</text>
<line x1="80" y1="500" x2="454" y2="500" stroke="rgba(148, 163, 184, 0.08)" stroke-width="1" />
<text x="80" y="526" text-anchor="start" class="rank">#02</text>
<text x="130" y="526" text-anchor="start" class="table-name">FangYikaii</text>
<text x="130" y="546" text-anchor="start" class="table-meta">10 repos wired in</text>
<rect x="254" y="515" width="78.6" height="8" rx="4" fill="url(#signal)" filter="url(#softGlow)" />
<text x="454" y="526" text-anchor="end" class="table-value">219</text>
<text x="454" y="546" text-anchor="end" class="table-meta">commits</text>
<line x1="80" y1="558" x2="454" y2="558" stroke="rgba(148, 163, 184, 0.08)" stroke-width="1" />
<text x="80" y="584" text-anchor="start" class="rank">#03</text>
<text x="130" y="584" text-anchor="start" class="table-name">Crucifixion-Fxl</text>
<text x="130" y="604" text-anchor="start" class="table-meta">2 repos wired in</text>
<rect x="254" y="573" width="44.5" height="8" rx="4" fill="url(#signal)" filter="url(#softGlow)" />
<text x="454" y="584" text-anchor="end" class="table-value">124</text>
<text x="454" y="604" text-anchor="end" class="table-meta">commits</text>
<line x1="80" y1="616" x2="454" y2="616" stroke="rgba(148, 163, 184, 0.08)" stroke-width="1" />
<text x="80" y="642" text-anchor="start" class="rank">#04</text>
<text x="130" y="642" text-anchor="start" class="table-name">yzfswt</text>
<text x="130" y="662" text-anchor="start" class="table-meta">2 repos wired in</text>
<rect x="254" y="631" width="23.0" height="8" rx="4" fill="url(#signal)" filter="url(#softGlow)" />
<text x="454" y="642" text-anchor="end" class="table-value">64</text>
<text x="454" y="662" text-anchor="end" class="table-meta">commits</text>
<line x1="80" y1="674" x2="454" y2="674" stroke="rgba(148, 163, 184, 0.08)" stroke-width="1" />
<text x="80" y="700" text-anchor="start" class="rank">#05</text>
<text x="130" y="700" text-anchor="start" class="table-name">lyt0615</text>
<text x="130" y="720" text-anchor="start" class="table-meta">3 repos wired in</text>
<rect x="254" y="689" width="17.2" height="8" rx="4" fill="url(#signal)" filter="url(#softGlow)" />
<text x="454" y="700" text-anchor="end" class="table-value">48</text>
<text x="454" y="720" text-anchor="end" class="table-meta">commits</text>
<line x1="80" y1="732" x2="454" y2="732" stroke="rgba(148, 163, 184, 0.08)" stroke-width="1" />
<text x="80" y="758" text-anchor="start" class="rank">#06</text>
<text x="130" y="758" text-anchor="start" class="table-name">v587wxy</text>
<text x="130" y="778" text-anchor="start" class="table-meta">4 repos wired in</text>
<rect x="254" y="747" width="10.8" height="8" rx="4" fill="url(#signal)" filter="url(#softGlow)" />
<text x="454" y="758" text-anchor="end" class="table-value">30</text>
<text x="454" y="778" text-anchor="end" class="table-meta">commits</text>
<line x1="80" y1="790" x2="454" y2="790" stroke="rgba(148, 163, 184, 0.08)" stroke-width="1" />
<rect x="502" y="376" width="886" height="448" rx="28" class="panel" />
<text x="530" y="416" text-anchor="start" class="panel-title">Project Pulse</text>
<text x="530" y="440" text-anchor="start" class="panel-subtitle">Repository badges, commit pressure, and capability flags.</text>
<rect x="530" y="458" width="414" height="176" rx="22" class="badge" />
<text x="548" y="486" text-anchor="start" class="badge-title">SPEC-04</text>
<text x="926" y="486" text-anchor="end" class="stream-state">PRIVATE</text>
<text x="548" y="508" text-anchor="start" class="badge-meta">谱学智能分析平台</text>
<text x="548" y="548" text-anchor="start" class="repo-card-mono">Python · 1.4 MB · 144 commits</text>
<text x="548" y="566" text-anchor="start" class="badge-meta">+5 / 30d · updated 4 days ago</text>
<text x="926" y="548" text-anchor="end" class="badge-meta">0★  0 forks</text>
<text x="926" y="566" text-anchor="end" class="badge-meta">No license · main</text>
<rect x="548" y="586" width="81" height="24" rx="12" class="badge-chip" />
<text x="558" y="603" text-anchor="start" class="badge-chip-text">issues:on</text>
<rect x="637" y="586" width="95" height="24" rx="12" class="badge-chip" />
<text x="647" y="603" text-anchor="start" class="badge-chip-text">projects:on</text>
<rect x="740" y="586" width="74" height="24" rx="12" class="badge-chip" />
<text x="750" y="603" text-anchor="start" class="badge-chip-text">wiki:off</text>
<rect x="822" y="586" width="74" height="24" rx="12" class="badge-chip" />
<text x="832" y="603" text-anchor="start" class="badge-chip-text">masked</text>
<rect x="962" y="458" width="414" height="176" rx="22" class="badge" />
<text x="980" y="486" text-anchor="start" class="badge-title">POLY-02</text>
<text x="1358" y="486" text-anchor="end" class="stream-state">PRIVATE</text>
<text x="980" y="508" text-anchor="start" class="badge-meta">高分子研发平台</text>
<text x="980" y="548" text-anchor="start" class="repo-card-mono">Python · 4.5 MB · 127 commits</text>
<text x="980" y="566" text-anchor="start" class="badge-meta">+95 / 30d · updated today</text>
<text x="1358" y="548" text-anchor="end" class="badge-meta">0★  0 forks</text>
<text x="1358" y="566" text-anchor="end" class="badge-meta">No license · main</text>
<rect x="980" y="586" width="81" height="24" rx="12" class="badge-chip" />
<text x="990" y="603" text-anchor="start" class="badge-chip-text">issues:on</text>
<rect x="1069" y="586" width="95" height="24" rx="12" class="badge-chip" />
<text x="1079" y="603" text-anchor="start" class="badge-chip-text">projects:on</text>
<rect x="1172" y="586" width="74" height="24" rx="12" class="badge-chip" />
<text x="1182" y="603" text-anchor="start" class="badge-chip-text">wiki:off</text>
<rect x="1254" y="586" width="74" height="24" rx="12" class="badge-chip" />
<text x="1264" y="603" text-anchor="start" class="badge-chip-text">masked</text>
<rect x="530" y="652" width="414" height="176" rx="22" class="badge" />
<text x="548" y="680" text-anchor="start" class="badge-title">SMAR-05</text>
<text x="926" y="680" text-anchor="end" class="stream-state">PRIVATE</text>
<text x="548" y="702" text-anchor="start" class="badge-meta">AI辅助科学仪器设备的非侵入式监控助手</text>
<text x="548" y="742" text-anchor="start" class="repo-card-mono">Python · 995.7 KB · 127 commits</text>
<text x="548" y="760" text-anchor="start" class="badge-meta">+24 / 30d · updated today</text>
<text x="926" y="742" text-anchor="end" class="badge-meta">0★  0 forks</text>
<text x="926" y="760" text-anchor="end" class="badge-meta">No license · main</text>
<rect x="548" y="780" width="81" height="24" rx="12" class="badge-chip" />
<text x="558" y="797" text-anchor="start" class="badge-chip-text">issues:on</text>
<rect x="637" y="780" width="95" height="24" rx="12" class="badge-chip" />
<text x="647" y="797" text-anchor="start" class="badge-chip-text">projects:on</text>
<rect x="740" y="780" width="74" height="24" rx="12" class="badge-chip" />
<text x="750" y="797" text-anchor="start" class="badge-chip-text">wiki:off</text>
<rect x="822" y="780" width="74" height="24" rx="12" class="badge-chip" />
<text x="832" y="797" text-anchor="start" class="badge-chip-text">masked</text>
<rect x="962" y="652" width="414" height="176" rx="22" class="badge" />
<text x="980" y="680" text-anchor="start" class="badge-title">BAYE-08</text>
<text x="1358" y="680" text-anchor="end" class="stream-state">PRIVATE</text>
<text x="980" y="702" text-anchor="start" class="badge-meta">Metal Proj: Bayes Optimization</text>
<text x="980" y="742" text-anchor="start" class="repo-card-mono">Python · 217.2 KB · 123 commits</text>
<text x="980" y="760" text-anchor="start" class="badge-meta">+0 / 30d · updated 9 days ago</text>
<text x="1358" y="742" text-anchor="end" class="badge-meta">0★  0 forks</text>
<text x="1358" y="760" text-anchor="end" class="badge-meta">No license · main</text>
<rect x="980" y="780" width="81" height="24" rx="12" class="badge-chip" />
<text x="990" y="797" text-anchor="start" class="badge-chip-text">issues:on</text>
<rect x="1069" y="780" width="95" height="24" rx="12" class="badge-chip" />
<text x="1079" y="797" text-anchor="start" class="badge-chip-text">projects:on</text>
<rect x="1172" y="780" width="74" height="24" rx="12" class="badge-chip" />
<text x="1182" y="797" text-anchor="start" class="badge-chip-text">wiki:off</text>
<rect x="1254" y="780" width="74" height="24" rx="12" class="badge-chip" />
<text x="1264" y="797" text-anchor="start" class="badge-chip-text">masked</text>
<rect x="52" y="848" width="430" height="372" rx="28" class="panel" />
<text x="80" y="888" text-anchor="start" class="panel-title">Language Footprint</text>
<text x="80" y="912" text-anchor="start" class="panel-subtitle">Byte-weighted code distribution across tracked repositories.</text>
<text x="80" y="940" text-anchor="start" class="table-name" font-size="15">Python</text>
<rect x="208" y="929" width="170.0" height="9" rx="4" fill="url(#signal)" />
<text x="454" y="940" text-anchor="end" class="table-value" font-size="14">49.0%</text>
<text x="454" y="956" text-anchor="end" class="table-meta">10.4 MB</text>
<text x="80" y="984" text-anchor="start" class="table-name" font-size="15">C#</text>
<rect x="208" y="973" width="111.3" height="9" rx="4" fill="url(#signal)" />
<text x="454" y="984" text-anchor="end" class="table-value" font-size="14">32.1%</text>
<text x="454" y="1000" text-anchor="end" class="table-meta">6.8 MB</text>
<text x="80" y="1028" text-anchor="start" class="table-name" font-size="15">Vue</text>
<rect x="208" y="1017" width="28.7" height="9" rx="4" fill="url(#signal)" />
<text x="454" y="1028" text-anchor="end" class="table-value" font-size="14">8.3%</text>
<text x="454" y="1044" text-anchor="end" class="table-meta">1.7 MB</text>
<text x="80" y="1072" text-anchor="start" class="table-name" font-size="15">Go</text>
<rect x="208" y="1061" width="21.4" height="9" rx="4" fill="url(#signal)" />
<text x="454" y="1072" text-anchor="end" class="table-value" font-size="14">6.2%</text>
<text x="454" y="1088" text-anchor="end" class="table-meta">1.3 MB</text>
<text x="80" y="1116" text-anchor="start" class="table-name" font-size="15">Jupyter Notebook</text>
<rect x="208" y="1105" width="8.1" height="9" rx="4" fill="url(#signal)" />
<text x="454" y="1116" text-anchor="end" class="table-value" font-size="14">2.3%</text>
<text x="454" y="1132" text-anchor="end" class="table-meta">504.5 KB</text>
<text x="80" y="1160" text-anchor="start" class="table-name" font-size="15">JavaScript</text>
<rect x="208" y="1149" width="7.2" height="9" rx="4" fill="url(#signal)" />
<text x="454" y="1160" text-anchor="end" class="table-value" font-size="14">2.1%</text>
<text x="454" y="1176" text-anchor="end" class="table-meta">449.7 KB</text>
<rect x="502" y="848" width="886" height="372" rx="28" class="panel" />
<text x="530" y="888" text-anchor="start" class="panel-title">Activity Trail</text>
<text x="530" y="912" text-anchor="start" class="panel-subtitle">Rolling 12-week commit signal rendered as a live operations trace.</text>
<line x1="548" y1="948.0" x2="1352" y2="948.0" stroke="rgba(148, 163, 184, 0.08)" stroke-width="1" />
<text x="536" y="952.0" text-anchor="end" class="tiny">93</text>
<line x1="548" y1="996.5" x2="1352" y2="996.5" stroke="rgba(148, 163, 184, 0.08)" stroke-width="1" />
<text x="536" y="1000.5" text-anchor="end" class="tiny">70</text>
<line x1="548" y1="1045.0" x2="1352" y2="1045.0" stroke="rgba(148, 163, 184, 0.08)" stroke-width="1" />
<text x="536" y="1049.0" text-anchor="end" class="tiny">46</text>
<line x1="548" y1="1093.5" x2="1352" y2="1093.5" stroke="rgba(148, 163, 184, 0.08)" stroke-width="1" />
<text x="536" y="1097.5" text-anchor="end" class="tiny">23</text>
<line x1="548" y1="1142.0" x2="1352" y2="1142.0" stroke="rgba(148, 163, 184, 0.08)" stroke-width="1" />
<text x="536" y="1146.0" text-anchor="end" class="tiny">0</text>
<text x="548.0" y="1170" text-anchor="middle" class="tiny">May 11</text>
<text x="621.0909090909091" y="1170" text-anchor="middle" class="tiny">May 18</text>
<text x="694.1818181818182" y="1170" text-anchor="middle" class="tiny">May 25</text>
<text x="767.2727272727273" y="1170" text-anchor="middle" class="tiny">Jun 01</text>
<text x="840.3636363636364" y="1170" text-anchor="middle" class="tiny">Jun 08</text>
<text x="913.4545454545455" y="1170" text-anchor="middle" class="tiny">Jun 15</text>
<text x="986.5454545454545" y="1170" text-anchor="middle" class="tiny">Jun 22</text>
<text x="1059.6363636363635" y="1170" text-anchor="middle" class="tiny">Jun 29</text>
<text x="1132.7272727272727" y="1170" text-anchor="middle" class="tiny">Jul 06</text>
<text x="1205.818181818182" y="1170" text-anchor="middle" class="tiny">Jul 13</text>
<text x="1278.909090909091" y="1170" text-anchor="middle" class="tiny">Jul 20</text>
<text x="1352.0" y="1170" text-anchor="middle" class="tiny">Jul 27</text>
<polygon points="548.0,1142.0 548.0,1125.3 621.1,1071.1 694.2,1112.8 767.3,1069.0 840.4,948.0 913.5,1060.6 986.5,1027.3 1059.6,1064.8 1132.7,1066.9 1205.8,1048.1 1278.9,1035.6 1352.0,1039.8 1352.0,1142.0" fill="url(#signal)" fill-opacity="0.14" />
<polyline points="548.0,1125.3 621.1,1071.1 694.2,1112.8 767.3,1069.0 840.4,948.0 913.5,1060.6 986.5,1027.3 1059.6,1064.8 1132.7,1066.9 1205.8,1048.1 1278.9,1035.6 1352.0,1039.8" fill="none" stroke="url(#signal)" stroke-width="4" stroke-linecap="round" stroke-linejoin="round" filter="url(#softGlow)" />
<circle cx="548.0" cy="1125.3" r="4.5" fill="#02060b" stroke="#67e8f9" stroke-width="2" />
<circle cx="621.1" cy="1071.1" r="4.5" fill="#02060b" stroke="#67e8f9" stroke-width="2" />
<circle cx="694.2" cy="1112.8" r="4.5" fill="#02060b" stroke="#67e8f9" stroke-width="2" />
<circle cx="767.3" cy="1069.0" r="4.5" fill="#02060b" stroke="#67e8f9" stroke-width="2" />
<circle cx="840.4" cy="948.0" r="4.5" fill="#02060b" stroke="#67e8f9" stroke-width="2" />
<circle cx="913.5" cy="1060.6" r="4.5" fill="#02060b" stroke="#67e8f9" stroke-width="2" />
<circle cx="986.5" cy="1027.3" r="4.5" fill="#02060b" stroke="#67e8f9" stroke-width="2" />
<circle cx="1059.6" cy="1064.8" r="4.5" fill="#02060b" stroke="#67e8f9" stroke-width="2" />
<circle cx="1132.7" cy="1066.9" r="4.5" fill="#02060b" stroke="#67e8f9" stroke-width="2" />
<circle cx="1205.8" cy="1048.1" r="4.5" fill="#02060b" stroke="#67e8f9" stroke-width="2" />
<circle cx="1278.9" cy="1035.6" r="4.5" fill="#02060b" stroke="#67e8f9" stroke-width="2" />
<circle cx="1352.0" cy="1039.8" r="4.5" fill="#02060b" stroke="#67e8f9" stroke-width="2" />
<text x="1346" y="928" text-anchor="end" class="table-value" font-size="16">496 commits / 12 weeks</text>
<text x="1346" y="946" text-anchor="end" class="table-meta">peak week 93</text>
<rect x="52" y="1244" width="668" height="372" rx="28" class="panel" />
<text x="80" y="1284" text-anchor="start" class="panel-title">Issue + PR Stream</text>
<text x="80" y="1308" text-anchor="start" class="panel-subtitle">Latest collaboration events across repository surfaces.</text>
<line x1="80" y1="1320" x2="692" y2="1320" stroke="rgba(148, 163, 184, 0.07)" stroke-width="1" />
<text x="80" y="1358" text-anchor="start" class="stream-state">ISSUE CHANNEL</text>
<text x="80" y="1380" text-anchor="start" class="stream-copy">Awaiting issue traffic</text>
<text x="392" y="1338" text-anchor="start" class="stream-state">POLY-02 · pr #30</text>
<text x="392" y="1360" text-anchor="start" class="stream-label">private pr #30</text>
<text x="392" y="1380" text-anchor="start" class="stream-copy">closed · updated today</text>
<line x1="80" y1="1408" x2="692" y2="1408" stroke="rgba(148, 163, 184, 0.07)" stroke-width="1" />
<text x="80" y="1446" text-anchor="start" class="stream-state">ISSUE CHANNEL</text>
<text x="80" y="1468" text-anchor="start" class="stream-copy">Awaiting issue traffic</text>
<text x="392" y="1426" text-anchor="start" class="stream-state">POLY-02 · pr #29</text>
<text x="392" y="1448" text-anchor="start" class="stream-label">private pr #29</text>
<text x="392" y="1468" text-anchor="start" class="stream-copy">closed · updated 3 days ago</text>
<line x1="80" y1="1496" x2="692" y2="1496" stroke="rgba(148, 163, 184, 0.07)" stroke-width="1" />
<text x="80" y="1534" text-anchor="start" class="stream-state">ISSUE CHANNEL</text>
<text x="80" y="1556" text-anchor="start" class="stream-copy">Awaiting issue traffic</text>
<text x="392" y="1514" text-anchor="start" class="stream-state">POLY-02 · pr #28</text>
<text x="392" y="1536" text-anchor="start" class="stream-label">private pr #28</text>
<text x="392" y="1556" text-anchor="start" class="stream-copy">closed · updated 3 days ago</text>
<rect x="740" y="1244" width="648" height="372" rx="28" class="panel" />
<text x="768" y="1284" text-anchor="start" class="panel-title">Release Lane + Roadmap</text>
<text x="768" y="1308" text-anchor="start" class="panel-subtitle">Latest release artifacts and milestone intent from repository data.</text>
<text x="768" y="1336" text-anchor="start" class="stream-state">SMAR-05 · release</text>
<text x="768" y="1358" text-anchor="start" class="stream-label">private release v0.1.0</text>
<text x="768" y="1378" text-anchor="start" class="stream-copy">v0.1.0 · published 4 days ago</text>
<text x="1060" y="1356" text-anchor="start" class="stream-state">ROADMAP SLOT</text>
<text x="1060" y="1378" text-anchor="start" class="stream-copy">Awaiting milestone configuration</text>
<text x="768" y="1424" text-anchor="start" class="stream-state">RELEASE SLOT</text>
<text x="768" y="1446" text-anchor="start" class="stream-copy">Awaiting first release artifact</text>
<text x="1060" y="1424" text-anchor="start" class="stream-state">ROADMAP SLOT</text>
<text x="1060" y="1446" text-anchor="start" class="stream-copy">Awaiting milestone configuration</text>
<text x="768" y="1492" text-anchor="start" class="stream-state">RELEASE SLOT</text>
<text x="768" y="1514" text-anchor="start" class="stream-copy">Awaiting first release artifact</text>
<text x="1060" y="1492" text-anchor="start" class="stream-state">ROADMAP SLOT</text>
<text x="1060" y="1514" text-anchor="start" class="stream-copy">Awaiting milestone configuration</text>
<text x="768" y="1560" text-anchor="start" class="stream-state">RELEASE SLOT</text>
<text x="768" y="1582" text-anchor="start" class="stream-copy">Awaiting first release artifact</text>
<text x="1060" y="1560" text-anchor="start" class="stream-state">ROADMAP SLOT</text>
<text x="1060" y="1582" text-anchor="start" class="stream-copy">Awaiting milestone configuration</text>
<rect x="52" y="1640" width="1336" height="62" rx="20" class="panel-bright" />
<text x="74" y="1678" text-anchor="start" class="footer">Telemetry source: GitHub REST API. Scope=all; owner=SynlysAI; forks=excluded. People panels reflect public contributors.</text>
<text x="1362" y="1678" text-anchor="end" class="footer">private names masked · refreshed 2026-08-03 05:54 UTC</text>
</svg>